<svg data-v-423bf9ae="" xmlns="http://www.w3.org/2000/svg" viewBox="0 0 91 91" class="iconLeft"><g data-v-423bf9ae="" id="43782a58-2c8a-4832-aff0-8b94a9349932" transform="matrix(1.000011020236545,0,0,1.000011020236545,-4.000551011827255,-4.001046927936841)" stroke="none" fill="white"><path d="M57.591 63.982H42.405a6.15 6.15 0 01-6.143-6.142V42.655a6.15 6.15 0 016.143-6.143h15.186a6.15 6.15 0 016.142 6.143v15.186a6.148 6.148 0 01-6.142 6.141zm-15.186-23.01c-.929 0-1.684.755-1.684 1.684v15.186c0 .927.755 1.683 1.684 1.683h15.186c.927 0 1.683-.756 1.683-1.683V42.655c0-.928-.756-1.684-1.683-1.684H42.405zM50 13.342a4.176 4.176 0 01-4.172-4.171C45.828 6.871 47.698 5 50 5c2.3 0 4.17 1.871 4.17 4.171A4.175 4.175 0 0150 13.342zM50 21.999a3.137 3.137 0 01-3.134-3.132c0-1.727 1.406-3.134 3.134-3.134s3.132 1.407 3.132 3.134A3.135 3.135 0 0150 21.999z"></path><circle cx="49.999" cy="26.565" r="2.094"></circle><path d="M24.079 24.077a4.174 4.174 0 01-5.898 0 4.175 4.175 0 01-.002-5.898 4.178 4.178 0 015.9.001 4.176 4.176 0 010 5.897zM30.201 30.2a3.137 3.137 0 01-4.43 0 3.135 3.135 0 010-4.43 3.137 3.137 0 014.43 0 3.138 3.138 0 010 4.43zM31.949 34.909a2.093 2.093 0 112.961-2.961 2.098 2.098 0 010 2.962 2.095 2.095 0 01-2.961-.001zM13.341 50a4.176 4.176 0 01-4.17 4.17A4.175 4.175 0 015 50a4.174 4.174 0 014.169-4.172A4.179 4.179 0 0113.341 50zM21.999 49.998a3.14 3.14 0 01-3.132 3.134 3.137 3.137 0 01-3.133-3.134 3.14 3.14 0 013.133-3.134 3.14 3.14 0 013.132 3.134zM26.565 52.094a2.096 2.096 0 110-4.192 2.096 2.096 0 010 4.192zM24.079 75.921a4.177 4.177 0 010 5.898 4.183 4.183 0 01-5.9 0 4.177 4.177 0 010-5.898 4.183 4.183 0 015.9 0zM30.199 69.801a3.13 3.13 0 01.002 4.424 3.126 3.126 0 01-4.43 0 3.138 3.138 0 010-4.431 3.133 3.133 0 014.428.007zM34.908 68.052a2.096 2.096 0 11-2.963-2.964 2.096 2.096 0 012.963 2.964zM50 86.657c2.3 0 4.17 1.871 4.17 4.17-.003 2.3-1.874 4.174-4.173 4.174s-4.169-1.871-4.169-4.17 1.87-4.17 4.172-4.174zM49.997 78.001a3.133 3.133 0 013.132 3.128 3.132 3.132 0 01-6.263 0 3.13 3.13 0 013.131-3.128zM52.091 73.434a2.1 2.1 0 01-2.094 2.098 2.097 2.097 0 010-4.195 2.101 2.101 0 012.094 2.097zM75.922 75.921a4.174 4.174 0 015.895-.003 4.184 4.184 0 01.003 5.904 4.18 4.18 0 01-5.897 0 4.18 4.18 0 01-.001-5.901zM69.798 69.801a3.13 3.13 0 114.428 4.427 3.13 3.13 0 01-4.428-4.427zM68.049 65.091a2.1 2.1 0 01.004 2.964 2.102 2.102 0 01-2.969-.003 2.102 2.102 0 010-2.965 2.102 2.102 0 012.965.004zM86.658 50c0-2.3 1.869-4.172 4.168-4.172A4.18 4.18 0 0195 50a4.175 4.175 0 01-4.17 4.17A4.176 4.176 0 0186.658 50zM78.002 50a3.13 3.13 0 116.26 0 3.137 3.137 0 01-3.132 3.135A3.13 3.13 0 0178.002 50zM73.435 47.906c1.156 0 2.09.937 2.094 2.094a2.1 2.1 0 01-2.098 2.097A2.101 2.101 0 0171.334 50a2.101 2.101 0 012.101-2.094zM75.922 24.077a4.171 4.171 0 01-.004-5.896 4.179 4.179 0 015.901-.002 4.174 4.174 0 010 5.896 4.176 4.176 0 01-5.897.002zM69.798 30.2a3.134 3.134 0 010-4.426 3.126 3.126 0 014.428-.001 3.135 3.135 0 01.003 4.429 3.136 3.136 0 01-4.431-.002zM65.091 31.948a2.098 2.098 0 012.962-.002 2.1 2.1 0 01-2.969 2.967 2.1 2.1 0 01.007-2.965zM36.297 16a4.175 4.175 0 01-5.428-2.31 4.174 4.174 0 012.31-5.427 4.173 4.173 0 015.427 2.309A4.175 4.175 0 0136.297 16zM39.534 24.029a3.139 3.139 0 01-4.079-1.736 3.139 3.139 0 011.737-4.077 3.14 3.14 0 014.078 1.736 3.138 3.138 0 01-1.736 4.077z"></path><circle cx="41.24" cy="28.264" r="2.094"></circle><path d="M16.269 35.646A4.174 4.174 0 0110.8 37.85a4.173 4.173 0 01-2.208-5.469 4.177 4.177 0 015.474-2.205 4.176 4.176 0 012.203 5.47zM24.236 39.037a3.138 3.138 0 01-4.111 1.655 3.137 3.137 0 01-1.655-4.109 3.138 3.138 0 014.11-1.657 3.143 3.143 0 011.656 4.111zM27.618 42.751a2.095 2.095 0 111.637-3.856 2.095 2.095 0 01-1.637 3.856zM15.999 63.7a4.176 4.176 0 01-2.309 5.428 4.175 4.175 0 01-5.428-2.306 4.181 4.181 0 012.308-5.432 4.185 4.185 0 015.429 2.31zM24.028 60.465a3.14 3.14 0 01-1.733 4.079 3.143 3.143 0 01-4.078-1.738 3.14 3.14 0 011.736-4.076 3.134 3.134 0 014.075 1.735zM29.046 60.701a2.095 2.095 0 01-2.727-1.156 2.096 2.096 0 013.889-1.568 2.096 2.096 0 01-1.162 2.724zM35.647 83.731a4.174 4.174 0 012.203 5.47 4.174 4.174 0 01-5.471 2.205 4.175 4.175 0 01-2.205-5.47 4.182 4.182 0 015.473-2.205zM39.036 75.765a3.136 3.136 0 011.657 4.107 3.128 3.128 0 01-4.109 1.654 3.138 3.138 0 01-1.657-4.11 3.136 3.136 0 014.109-1.651zM42.75 72.382a2.098 2.098 0 01-2.748 1.111 2.097 2.097 0 011.643-3.856 2.093 2.093 0 011.105 2.745zM63.701 84a4.18 4.18 0 015.428 2.31 4.179 4.179 0 01-2.31 5.427 4.176 4.176 0 01-5.428-2.31A4.182 4.182 0 0163.701 84z"></path><circle cx="61.635" cy="78.875" r="3.132"></circle><path d="M60.702 70.953a2.094 2.094 0 01-1.16 2.725 2.092 2.092 0 01-2.728-1.163 2.096 2.096 0 011.16-2.725 2.103 2.103 0 012.728 1.163zM83.732 64.353a4.174 4.174 0 015.467-2.206 4.186 4.186 0 012.209 5.474 4.18 4.18 0 01-5.471 2.205 4.18 4.18 0 01-2.205-5.473zM75.765 60.966a3.133 3.133 0 014.104-1.658 3.126 3.126 0 011.654 4.107 3.13 3.13 0 01-5.758-2.449zM72.383 57.249a2.093 2.093 0 011.107 2.749 2.097 2.097 0 01-2.752 1.104 2.094 2.094 0 111.645-3.853zM84 36.296a4.18 4.18 0 012.307-5.426 4.177 4.177 0 015.429 2.309 4.172 4.172 0 01-2.306 5.425A4.18 4.18 0 0184 36.296zM75.971 39.533a3.132 3.132 0 011.731-4.073 3.127 3.127 0 014.075 1.733 3.136 3.136 0 01-1.731 4.077 3.133 3.133 0 01-4.075-1.737zM70.954 39.299a2.095 2.095 0 111.561 3.886 2.1 2.1 0 01-2.728-1.159 2.104 2.104 0 011.167-2.727zM64.353 16.268a4.176 4.176 0 01-2.208-5.467 4.183 4.183 0 015.476-2.208 4.176 4.176 0 012.202 5.47 4.18 4.18 0 01-5.47 2.205zM60.963 24.235a3.134 3.134 0 01-1.654-4.104 3.125 3.125 0 014.104-1.657 3.13 3.13 0 11-2.45 5.761zM57.25 27.616a2.098 2.098 0 012.745-1.109 2.1 2.1 0 01-1.645 3.861 2.102 2.102 0 01-1.1-2.752z"></path></g><!----></svg>