<svg data-v-423bf9ae="" xmlns="http://www.w3.org/2000/svg" viewBox="0 0 299 91" class="iconLeft"><!----><!----><!----><g data-v-423bf9ae="" id="e277e34a-9507-4d6d-be58-d49741e87d84" fill="white" transform="matrix(5.649717575005543,0,0,5.649717575005543,107.23262446472856,-4.942511295259365)"><path d="M0.49 10.37C0.49 12.61 2.03 14.14 4.24 14.14C5.66 14.14 6.73 13.64 7.41 12.75L6.51 11.86C6.01 12.45 5.25 12.75 4.31 12.75C3.02 12.75 2.10 11.79 2.10 10.37C2.10 8.96 3.02 7.99 4.31 7.99C5.21 7.98 5.92 8.30 6.44 8.83L7.32 7.80C6.64 7.01 5.59 6.58 4.24 6.58C2.03 6.58 0.49 8.12 0.49 10.37ZM8.47 11.84C8.47 13.16 9.48 14.15 11.09 14.15C12.17 14.15 13.02 13.83 13.55 13.17L13.55 14.08L15.13 14.08L15.12 9.20C15.11 7.56 14.03 6.58 12.11 6.58C10.70 6.58 9.94 6.90 8.90 7.52L9.56 8.64C10.30 8.13 11.05 7.88 11.76 7.88C12.94 7.88 13.54 8.44 13.54 9.38L13.54 9.60L11.28 9.60C9.49 9.62 8.47 10.49 8.47 11.84ZM9.98 11.77C9.98 11.06 10.47 10.78 11.52 10.78L13.54 10.78L13.54 11.47C13.45 12.28 12.57 12.88 11.42 12.88C10.53 12.88 9.98 12.45 9.98 11.77ZM17.29 14.08L18.90 14.08L18.90 10.19C19.03 8.92 19.98 8.04 21.48 8.12L21.48 6.58C20.30 6.58 19.40 7.11 18.90 8.12L18.90 6.64L17.29 6.64ZM22.67 4.51C22.67 5.07 23.07 5.47 23.60 5.47C24.14 5.47 24.54 5.07 24.54 4.51C24.54 3.93 24.14 3.53 23.60 3.53C23.07 3.53 22.67 3.93 22.67 4.51ZM22.81 14.08L24.40 14.08L24.40 6.64L22.81 6.64ZM26.08 10.36C26.08 12.60 27.66 14.14 29.97 14.14C32.27 14.14 33.85 12.60 33.85 10.36C33.85 8.11 32.27 6.58 29.97 6.58C27.66 6.58 26.08 8.11 26.08 10.36ZM27.69 10.37C27.69 8.95 28.63 7.97 29.97 7.97C31.30 7.97 32.24 8.95 32.24 10.37C32.24 11.82 31.30 12.80 29.97 12.80C28.63 12.80 27.69 11.82 27.69 10.37Z"></path></g><!----><g data-v-423bf9ae="" id="43782a58-2c8a-4832-aff0-8b94a9349932" transform="matrix(1.000011020236545,0,0,1.000011020236545,-4.000551011827255,-4.001046927936841)" stroke="none" fill="white"><path d="M57.591 63.982H42.405a6.15 6.15 0 01-6.143-6.142V42.655a6.15 6.15 0 016.143-6.143h15.186a6.15 6.15 0 016.142 6.143v15.186a6.148 6.148 0 01-6.142 6.141zm-15.186-23.01c-.929 0-1.684.755-1.684 1.684v15.186c0 .927.755 1.683 1.684 1.683h15.186c.927 0 1.683-.756 1.683-1.683V42.655c0-.928-.756-1.684-1.683-1.684H42.405zM50 13.342a4.176 4.176 0 01-4.172-4.171C45.828 6.871 47.698 5 50 5c2.3 0 4.17 1.871 4.17 4.171A4.175 4.175 0 0150 13.342zM50 21.999a3.137 3.137 0 01-3.134-3.132c0-1.727 1.406-3.134 3.134-3.134s3.132 1.407 3.132 3.134A3.135 3.135 0 0150 21.999z"></path><circle cx="49.999" cy="26.565" r="2.094"></circle><path d="M24.079 24.077a4.174 4.174 0 01-5.898 0 4.175 4.175 0 01-.002-5.898 4.178 4.178 0 015.9.001 4.176 4.176 0 010 5.897zM30.201 30.2a3.137 3.137 0 01-4.43 0 3.135 3.135 0 010-4.43 3.137 3.137 0 014.43 0 3.138 3.138 0 010 4.43zM31.949 34.909a2.093 2.093 0 112.961-2.961 2.098 2.098 0 010 2.962 2.095 2.095 0 01-2.961-.001zM13.341 50a4.176 4.176 0 01-4.17 4.17A4.175 4.175 0 015 50a4.174 4.174 0 014.169-4.172A4.179 4.179 0 0113.341 50zM21.999 49.998a3.14 3.14 0 01-3.132 3.134 3.137 3.137 0 01-3.133-3.134 3.14 3.14 0 013.133-3.134 3.14 3.14 0 013.132 3.134zM26.565 52.094a2.096 2.096 0 110-4.192 2.096 2.096 0 010 4.192zM24.079 75.921a4.177 4.177 0 010 5.898 4.183 4.183 0 01-5.9 0 4.177 4.177 0 010-5.898 4.183 4.183 0 015.9 0zM30.199 69.801a3.13 3.13 0 01.002 4.424 3.126 3.126 0 01-4.43 0 3.138 3.138 0 010-4.431 3.133 3.133 0 014.428.007zM34.908 68.052a2.096 2.096 0 11-2.963-2.964 2.096 2.096 0 012.963 2.964zM50 86.657c2.3 0 4.17 1.871 4.17 4.17-.003 2.3-1.874 4.174-4.173 4.174s-4.169-1.871-4.169-4.17 1.87-4.17 4.172-4.174zM49.997 78.001a3.133 3.133 0 013.132 3.128 3.132 3.132 0 01-6.263 0 3.13 3.13 0 013.131-3.128zM52.091 73.434a2.1 2.1 0 01-2.094 2.098 2.097 2.097 0 010-4.195 2.101 2.101 0 012.094 2.097zM75.922 75.921a4.174 4.174 0 015.895-.003 4.184 4.184 0 01.003 5.904 4.18 4.18 0 01-5.897 0 4.18 4.18 0 01-.001-5.901zM69.798 69.801a3.13 3.13 0 114.428 4.427 3.13 3.13 0 01-4.428-4.427zM68.049 65.091a2.1 2.1 0 01.004 2.964 2.102 2.102 0 01-2.969-.003 2.102 2.102 0 010-2.965 2.102 2.102 0 012.965.004zM86.658 50c0-2.3 1.869-4.172 4.168-4.172A4.18 4.18 0 0195 50a4.175 4.175 0 01-4.17 4.17A4.176 4.176 0 0186.658 50zM78.002 50a3.13 3.13 0 116.26 0 3.137 3.137 0 01-3.132 3.135A3.13 3.13 0 0178.002 50zM73.435 47.906c1.156 0 2.09.937 2.094 2.094a2.1 2.1 0 01-2.098 2.097A2.101 2.101 0 0171.334 50a2.101 2.101 0 012.101-2.094zM75.922 24.077a4.171 4.171 0 01-.004-5.896 4.179 4.179 0 015.901-.002 4.174 4.174 0 010 5.896 4.176 4.176 0 01-5.897.002zM69.798 30.2a3.134 3.134 0 010-4.426 3.126 3.126 0 014.428-.001 3.135 3.135 0 01.003 4.429 3.136 3.136 0 01-4.431-.002zM65.091 31.948a2.098 2.098 0 012.962-.002 2.1 2.1 0 01-2.969 2.967 2.1 2.1 0 01.007-2.965zM36.297 16a4.175 4.175 0 01-5.428-2.31 4.174 4.174 0 012.31-5.427 4.173 4.173 0 015.427 2.309A4.175 4.175 0 0136.297 16zM39.534 24.029a3.139 3.139 0 01-4.079-1.736 3.139 3.139 0 011.737-4.077 3.14 3.14 0 014.078 1.736 3.138 3.138 0 01-1.736 4.077z"></path><circle cx="41.24" cy="28.264" r="2.094"></circle><path d="M16.269 35.646A4.174 4.174 0 0110.8 37.85a4.173 4.173 0 01-2.208-5.469 4.177 4.177 0 015.474-2.205 4.176 4.176 0 012.203 5.47zM24.236 39.037a3.138 3.138 0 01-4.111 1.655 3.137 3.137 0 01-1.655-4.109 3.138 3.138 0 014.11-1.657 3.143 3.143 0 011.656 4.111zM27.618 42.751a2.095 2.095 0 111.637-3.856 2.095 2.095 0 01-1.637 3.856zM15.999 63.7a4.176 4.176 0 01-2.309 5.428 4.175 4.175 0 01-5.428-2.306 4.181 4.181 0 012.308-5.432 4.185 4.185 0 015.429 2.31zM24.028 60.465a3.14 3.14 0 01-1.733 4.079 3.143 3.143 0 01-4.078-1.738 3.14 3.14 0 011.736-4.076 3.134 3.134 0 014.075 1.735zM29.046 60.701a2.095 2.095 0 01-2.727-1.156 2.096 2.096 0 013.889-1.568 2.096 2.096 0 01-1.162 2.724zM35.647 83.731a4.174 4.174 0 012.203 5.47 4.174 4.174 0 01-5.471 2.205 4.175 4.175 0 01-2.205-5.47 4.182 4.182 0 015.473-2.205zM39.036 75.765a3.136 3.136 0 011.657 4.107 3.128 3.128 0 01-4.109 1.654 3.138 3.138 0 01-1.657-4.11 3.136 3.136 0 014.109-1.651zM42.75 72.382a2.098 2.098 0 01-2.748 1.111 2.097 2.097 0 011.643-3.856 2.093 2.093 0 011.105 2.745zM63.701 84a4.18 4.18 0 015.428 2.31 4.179 4.179 0 01-2.31 5.427 4.176 4.176 0 01-5.428-2.31A4.182 4.182 0 0163.701 84z"></path><circle cx="61.635" cy="78.875" r="3.132"></circle><path d="M60.702 70.953a2.094 2.094 0 01-1.16 2.725 2.092 2.092 0 01-2.728-1.163 2.096 2.096 0 011.16-2.725 2.103 2.103 0 012.728 1.163zM83.732 64.353a4.174 4.174 0 015.467-2.206 4.186 4.186 0 012.209 5.474 4.18 4.18 0 01-5.471 2.205 4.18 4.18 0 01-2.205-5.473zM75.765 60.966a3.133 3.133 0 014.104-1.658 3.126 3.126 0 011.654 4.107 3.13 3.13 0 01-5.758-2.449zM72.383 57.249a2.093 2.093 0 011.107 2.749 2.097 2.097 0 01-2.752 1.104 2.094 2.094 0 111.645-3.853zM84 36.296a4.18 4.18 0 012.307-5.426 4.177 4.177 0 015.429 2.309 4.172 4.172 0 01-2.306 5.425A4.18 4.18 0 0184 36.296zM75.971 39.533a3.132 3.132 0 011.731-4.073 3.127 3.127 0 014.075 1.733 3.136 3.136 0 01-1.731 4.077 3.133 3.133 0 01-4.075-1.737zM70.954 39.299a2.095 2.095 0 111.561 3.886 2.1 2.1 0 01-2.728-1.159 2.104 2.104 0 011.167-2.727zM64.353 16.268a4.176 4.176 0 01-2.208-5.467 4.183 4.183 0 015.476-2.208 4.176 4.176 0 012.202 5.47 4.18 4.18 0 01-5.47 2.205zM60.963 24.235a3.134 3.134 0 01-1.654-4.104 3.125 3.125 0 014.104-1.657 3.13 3.13 0 11-2.45 5.761zM57.25 27.616a2.098 2.098 0 012.745-1.109 2.1 2.1 0 01-1.645 3.861 2.102 2.102 0 01-1.1-2.752z"></path></g><!----></svg>